<?xml version="1.0" encoding="utf-8"?>
<!-- Generator: Adobe Illustrator 16.0.4, SVG Export Plug-In . SVG Version: 6.00 Build 0)  -->
<!DOCTYPE svg PUBLIC "-//W3C//DTD SVG 1.1//EN" "http://www.w3.org/Graphics/SVG/1.1/DTD/svg11.dtd">
<svg version="1.1" id="Layer_1" xmlns="http://www.w3.org/2000/svg" xmlns:xlink="http://www.w3.org/1999/xlink" x="0px" y="0px"
	 width="500px" height="500px" viewBox="0 0 500 500" enable-background="new 0 0 500 500" xml:space="preserve">
<g>
	<g>
		<path fill="#EFEFEF" d="M495,55.696c0,27.5-22.5,50-50,50H55c-27.5,0-50-22.5-50-50l0,0c0-27.5,22.5-50,50-50h390
			C472.5,5.696,495,28.196,495,55.696L495,55.696z"/>
	</g>
	<g>
		<path fill="#EFEFEF" d="M495,444.304c0,27.5-22.5,50-50,50H55c-27.5,0-50-22.5-50-50l0,0c0-27.5,22.5-50,50-50h390
			C472.5,394.304,495,416.804,495,444.304L495,444.304z"/>
	</g>
	<g>
		<path fill="#EFEFEF" d="M428.39,250c0,27.5-22.5,50-49.999,50H121.61c-27.5,0-50-22.5-50-50l0,0c0-27.5,22.5-50,50-50h256.781
			C405.89,200,428.39,222.5,428.39,250L428.39,250z"/>
	</g>
</g>
</svg>
