<?xml version="1.0" standalone="no"?>
<!DOCTYPE svg PUBLIC "-//W3C//DTD SVG 20010904//EN"
 "http://www.w3.org/TR/2001/REC-SVG-20010904/DTD/svg10.dtd">
<svg version="1.0" xmlns="http://www.w3.org/2000/svg"
 width="700.000000pt" height="700.000000pt" viewBox="0 0 700.000000 700.000000"
 preserveAspectRatio="xMidYMid meet">
<metadata>
Created by potrace 1.11, written by Peter Selinger 2001-2013
</metadata>
<g transform="translate(0.000000,700.000000) scale(0.100000,-0.100000)"
fill="#000000" stroke="none">
<path d="M0 3500 l0 -3500 3500 0 3500 0 0 3500 0 3500 -3500 0 -3500 0 0
-3500z m3667 1686 c541 -84 810 -334 874 -814 14 -103 6 -317 -15 -413 -33
-150 -112 -297 -214 -399 -74 -73 -132 -112 -266 -180 -60 -31 -111 -60 -112
-65 -2 -6 187 -350 421 -765 l424 -755 -322 -3 c-177 -1 -327 0 -333 2 -6 2
-181 313 -389 690 l-379 686 -263 0 -263 0 0 -690 0 -690 -305 0 -305 0 0
1711 0 1711 673 -5 c546 -4 691 -8 774 -21z"/>
<path d="M2830 4165 l0 -578 313 6 c341 6 402 14 513 66 117 55 197 153 241
296 14 48 18 94 18 225 0 145 -3 173 -23 235 -43 131 -132 226 -254 270 -106
38 -179 45 -495 52 l-313 6 0 -578z"/>
</g>
</svg>
